# xmcd
#
# Track frame offsets:
#	150
#	14546
#	28325
#	43322
#	54605
#	72253
#	94032
#	115969
#	137618
#	158416
#
# Disc length: 2307 seconds
#
# Revision: 0
# Processed by: cddbd v1.5.2PL0 Copyright (c) Steve Scherf et al.
# Submitted via: audiograbber 1.83.01
#
DISCID=8709010a
DTITLE=Rod Stewart - Bravo präsentiert Rod Stewart
DYEAR=1977
DGENRE=Rock
TTITLE0=Jailhouse Rock
TTITLE1=Plynth (Water Down the Drain)
TTITLE2=I've Been Drinking
TTITLE3=You Shook Me
TTITLE4=Old Man River
TTITLE5=All Shook Up
TTITLE6=I Ain't Superstitous
TTITLE7=The Hangman's Knee
TTITLE8=Morning Dew
TTITLE9=Shapes Of Things
EXTD=
EXTT0=
EXTT1=
EXTT2=
EXTT3=
EXTT4=
EXTT5=
EXTT6=
EXTT7=
EXTT8=
EXTT9=
PLAYORDER=
